# xmcd
# 
# Track frame offsets:
#     150
#     12889
#     29106
#     39950
#     54776
#     71867
#     85112
#     102022
#     119535
#     134837
# 
# Disc length: 1967
# 
# Revision: 1
# Processed by: cddbd v1.5.2PL0 Copyright (c) Steve Scherf et al.
# Submitted via: fre:ac v1.0.31
# 
DISCID=8507ad0a
DTITLE=The Black Keys/Dan Auerbach - Waiting On A Song
DYEAR=2017
DGENRE=Rock/Pop
TTITLE0=Waiting On A Song
TTITLE1=Malibu Man
TTITLE2=Livin' In Sin
TTITLE3=Shine On Me
TTITLE4=King Of A One Horse Town
TTITLE5=Never In My Wildest Dreams
TTITLE6=Cherrybomb
TTITLE7=Stand By My Girl
TTITLE8=Undertow
TTITLE9=Show Me
EXTD=
EXTT0=
EXTT1=
EXTT2=
EXTT3=
EXTT4=
EXTT5=
EXTT6=
EXTT7=
EXTT8=
EXTT9=
PLAYORDER=
